<svg id="Capa_1" enable-background="new 0 0 511.986 511.986" height="512" viewBox="0 0 511.986 511.986" width="512" xmlns="http://www.w3.org/2000/svg"><g><path d="m75.797 87.737c.752.238 1.513.351 2.261.351 3.185 0 6.14-2.045 7.149-5.243l1.082-3.426c1.248-3.95-.942-8.163-4.893-9.41-3.954-1.253-8.163.943-9.41 4.893l-1.082 3.426c-1.247 3.949.943 8.161 4.893 9.409z"/><path d="m67.754 124.689c2.272 0 4.518-1.028 5.992-2.981 2.495-3.306 1.838-8.009-1.468-10.505l-2.868-2.165c-3.305-2.493-8.009-1.837-10.505 1.468-2.495 3.306-1.838 8.009 1.468 10.505l2.868 2.165c1.353 1.02 2.94 1.513 4.513 1.513z"/><path d="m445.278 44.899c1.413 1.206 3.144 1.796 4.865 1.796 2.119 0 4.225-.893 5.708-2.631l2.015-2.36c2.689-3.15 2.315-7.885-.835-10.573-3.152-2.69-7.885-2.315-10.573.835l-2.015 2.36c-2.689 3.15-2.315 7.884.835 10.573z"/><path d="m423.914 57.521c1.39 2.406 3.91 3.751 6.502 3.751 1.272 0 2.562-.324 3.743-1.006 3.587-2.071 4.816-6.658 2.745-10.245l-1.552-2.688c-2.072-3.588-6.659-4.815-10.245-2.745-3.587 2.071-4.816 6.658-2.745 10.245z"/><path d="m255.684 32.536c-3.152-2.69-7.885-2.315-10.573.835l-2.015 2.36c-2.689 3.15-2.315 7.885.835 10.573 1.413 1.206 3.144 1.796 4.865 1.796 2.119 0 4.225-.893 5.708-2.631l2.015-2.36c2.69-3.15 2.316-7.884-.835-10.573z"/><path d="m262.475 58.864c1.39 2.406 3.91 3.751 6.502 3.751 1.272 0 2.562-.324 3.743-1.006 3.587-2.071 4.816-6.658 2.745-10.245l-1.552-2.688c-2.072-3.588-6.659-4.815-10.245-2.745-3.587 2.071-4.816 6.658-2.745 10.245z"/><path d="m497.809 145.664c-.357-4.127-4.005-7.179-8.117-6.828-4.127.356-7.184 3.99-6.828 8.117 2.396 27.78-12.11 53.881-36.96 66.495-17.68 8.976-46.082 14.291-71.735 13.74 1.187-5.128 2.175-10.351 2.962-15.675 4.945-33.446-4.505-67.454-25.947-93.737 11.121-11.233 22.973-20.4 33.171-25.577 15.909-8.073 34.186-9.623 51.346-4.167 17.375 5.525 31.285 17.48 39.487 32.975 1.937 3.659 6.476 5.057 10.138 3.12 3.661-1.938 5.058-6.477 3.12-10.138-4.158-7.854-9.469-14.859-15.689-20.874 6.534-15.259 10.376-31.181 11.417-47.416.818-12.761-4.018-24.752-12.444-33.245-11.942-12.036-29.784-15.694-45.424-9.455-11.524 4.596-20.975 14.184-25.082 26.795-4.47 13.725-6.811 28.065-6.98 42.715-5.707 1.494-11.297 3.587-16.677 6.317-11.416 5.795-24.459 15.791-36.567 27.929-12.851-12.294-28.152-21.539-44.765-27.2 3.492-11.039 5.653-22.39 6.388-33.854.654-10.204-2.306-19.914-7.827-27.738-14.336-20.318-42.431-23.864-61.466-8.204-6.18 5.084-11.021 11.936-13.659 20.034-5.438 16.693-7.715 34.19-6.81 52.09-17.963 7.251-34.153 18.79-47.027 33.901-7.769 9.119-14.056 19.223-18.757 29.951-7.37-2.438-14.764-4.448-22.171-6.01 1.645-23.277-1.278-45.846-8.744-67.178-8.036-22.964-31.774-36.596-55.227-31.705-24.704 5.201-40.153 27.994-38.113 51.716 1.6 18.628 6.389 36.797 14.231 54.11-41.159 28.962-24.251 92.013 24.93 98.217 7.771.979 15.566 1.469 23.374 1.469 19.498-.001 39.064-3.057 58.461-9.131 7.804 26.845 21.443 51 41.245 73.072h-40.479c-9.558 0-17.784 7.154-19.135 16.641-2.409 16.905-3.374 31.681-2.952 45.169.127 4.061 3.458 7.266 7.492 7.266.079 0 .158-.001.238-.004 4.141-.129 7.392-3.591 7.262-7.73-.395-12.615.524-26.545 2.81-42.585.306-2.142 2.147-3.756 4.285-3.756h226.193c2.138 0 3.98 1.615 4.286 3.756 9.126 64.054-3.731 95.795-34.382 136.724h-165.997c-18.868-25.242-28.671-44.443-33.596-65.616-.938-4.034-4.973-6.543-9.004-5.605-4.034.938-6.544 4.969-5.605 9.004 4.811 20.688 13.661 39.41 29.678 62.218h-13.223c-3.881 0-7.48 1.753-9.877 4.809-2.396 3.056-3.238 6.969-2.312 10.739.562 2.282 1.281 4.499 2.138 6.589 5.994 14.626 20.33 24.077 36.521 24.077h131.222c4.143 0 7.5-3.357 7.5-7.5s-3.357-7.5-7.5-7.5h-131.223c-9.923 0-19.021-5.934-22.642-14.767-.193-.472-.377-.954-.55-1.447h222.94c-.173.492-.356.976-.55 1.447-3.621 8.832-12.72 14.767-22.642 14.767h-15.349c-4.143 0-7.5 3.357-7.5 7.5s3.357 7.5 7.5 7.5h15.349c16.189 0 30.524-9.451 36.521-24.077.857-2.093 1.577-4.311 2.137-6.589.927-3.768.084-7.682-2.312-10.737-2.396-3.058-5.996-4.811-9.878-4.811h-13.203c27.853-39.533 39.811-74.806 30.688-138.84-1.353-9.486-9.579-16.64-19.136-16.64h-40.476c18.604-20.736 31.773-43.31 39.769-68.227 2.624.114 5.272.176 7.939.176 27.035 0 55.678-5.768 74.687-15.418 30.33-15.401 48.039-47.258 45.114-81.164zm-82.324-111.225c2.263-6.945 6.989-12.489 12.905-15.852 12.122-6.892 27.441-3.631 35.652 7.923 3.639 5.12 5.596 11.509 5.165 18.231-.845 13.171-3.752 26.129-8.656 38.637-6.229-4.064-13.032-7.328-20.303-9.639-10.147-3.226-20.618-4.441-30.946-3.716.385-12.204 2.456-24.14 6.183-35.584zm-181.553 0c1.916-5.881 5.598-10.758 10.272-14.157 12.993-9.448 31.053-5.865 39.42 7.959 2.903 4.796 4.411 10.517 4.028 16.501-.67 10.448-2.664 20.797-5.898 30.86-7.496-1.552-15.176-2.405-22.95-2.504-.101 0-2.403 0-2.257 0-9.829.126-19.51 1.449-28.856 3.88-.291-14.617 1.795-28.888 6.241-42.539zm-196.165 56.833c-.799-9.286 2.226-18.125 7.816-24.767 9.709-11.535 26.066-15.065 39.813-8.058 7.511 3.828 13.618 10.509 16.608 19.054 6.629 18.938 9.318 38.985 8.042 59.693-16.041-2.111-32.103-2.187-48.063-.175-4.023.507-7.897 1.45-11.588 2.758-6.951-15.549-11.195-31.833-12.628-48.505zm26.093 138.728c-5.875-.741-11.329-2.72-16.099-5.647-21.08-12.933-25.124-41.03-9.109-59.154 6.276-7.102 15.122-12.026 25.208-13.297 25.887-3.267 52.115-.586 78.066 7.932-4.926 16.594-6.277 34.213-3.695 51.681.555 3.754 1.215 7.455 1.969 11.111-25.383 8.075-51.032 10.568-76.34 7.374zm141.954 80.292c-29.755-29.175-47.019-62.234-52.745-100.972-4.437-30.016 4.377-60.563 24.183-83.811 19.923-23.386 48.895-37.022 79.477-37.414.101 0 2.018 0 1.896 0 30.593.392 59.565 14.028 79.488 37.414 19.805 23.247 28.618 53.795 24.182 83.811-5.726 38.736-22.988 71.796-52.744 100.972z"/><path d="m280.732 109.877c-1.525-3.852-5.887-5.736-9.734-4.213-3.852 1.525-5.737 5.884-4.213 9.734l1.89 4.772c1.167 2.945 3.989 4.741 6.976 4.741.919 0 1.854-.17 2.759-.528 3.852-1.525 5.737-5.884 4.213-9.734z"/><path d="m444.118 167.755c1.167 2.945 3.989 4.741 6.976 4.741.919 0 1.854-.17 2.759-.528 3.852-1.525 5.737-5.884 4.213-9.734l-1.89-4.772c-1.526-3.852-5.887-5.736-9.734-4.213-3.852 1.525-5.737 5.884-4.213 9.734z"/><path d="m400.606 117.035-1.89-4.772c-1.526-3.852-5.887-5.735-9.734-4.213-3.852 1.525-5.737 5.884-4.213 9.734l1.89 4.772c1.167 2.945 3.989 4.741 6.976 4.741.919 0 1.854-.17 2.759-.528 3.851-1.525 5.736-5.883 4.212-9.734z"/><path d="m101.924 196.429c-1.524-3.853-5.883-5.739-9.733-4.214-3.852 1.524-5.738 5.882-4.214 9.733l1.889 4.772c1.166 2.946 3.989 4.742 6.976 4.742.918 0 1.853-.17 2.758-.528 3.852-1.524 5.738-5.882 4.214-9.733z"/><path d="m301.24 233.719c-1.525-3.851-5.882-5.738-9.734-4.211-3.851 1.524-5.736 5.883-4.211 9.734l1.89 4.771c1.528 3.859 5.893 5.734 9.734 4.211 3.851-1.524 5.736-5.883 4.211-9.734z"/><path d="m186.289 162.233c-1.524-3.851-5.884-5.737-9.734-4.211-3.851 1.524-5.736 5.883-4.211 9.734l1.89 4.771c1.166 2.944 3.988 4.74 6.975 4.74.919 0 1.854-.17 2.76-.529 3.851-1.524 5.736-5.883 4.211-9.734z"/><path d="m62.242 181.892c-1.526-3.852-5.888-5.735-9.734-4.213-3.852 1.525-5.737 5.884-4.213 9.734l1.89 4.772c1.167 2.945 3.989 4.741 6.976 4.741.919 0 1.854-.17 2.759-.528 3.852-1.525 5.737-5.884 4.213-9.734z"/><path d="m229.877 132.471c-3.754-1.754-8.217-.13-9.968 3.624l-1.759 3.769c-1.752 3.754-.13 8.217 3.624 9.968 1.026.479 2.104.706 3.167.706 2.823 0 5.528-1.603 6.801-4.33l1.759-3.769c1.752-3.754.129-8.217-3.624-9.968z"/><path d="m121.925 167.274c-3.754-1.753-8.216-.13-9.968 3.624l-1.759 3.769c-1.752 3.754-.13 8.217 3.624 9.968 1.026.479 2.104.706 3.167.706 2.823 0 5.528-1.603 6.801-4.33l1.759-3.769c1.752-3.754.13-8.217-3.624-9.968z"/><path d="m247.207 192.093 1.758-3.769c1.751-3.753.127-8.216-3.627-9.967-3.752-1.751-8.216-.126-9.967 3.627l-1.758 3.769c-1.751 3.753-.127 8.216 3.627 9.967 3.741 1.746 8.21.14 9.967-3.627z"/><path d="m206.38 216.266-4.121.555c-4.105.552-6.985 4.328-6.433 8.433.507 3.767 3.726 6.501 7.423 6.501.846 0 1.08-.097 5.131-.623 4.105-.552 6.985-4.328 6.433-8.433-.553-4.107-4.336-6.989-8.433-6.433z"/><path d="m406.599 177.544c.333 0 .671-.022 1.01-.068l4.121-.555c4.105-.552 6.985-4.328 6.433-8.433-.553-4.106-4.334-6.992-8.433-6.433l-4.121.555c-4.105.552-6.985 4.328-6.433 8.433.507 3.767 3.726 6.501 7.423 6.501z"/><path d="m314.655 182.893 1.758-3.77c1.751-3.754.127-8.217-3.627-9.967-3.752-1.751-8.216-.127-9.967 3.627l-1.758 3.77c-1.751 3.754-.127 8.217 3.627 9.967 1.025.479 2.104.705 3.165.705 2.824 0 5.529-1.604 6.802-4.332z"/><path d="m440.574 103.957c-3.752-1.751-8.216-.127-9.967 3.627l-1.758 3.769c-1.751 3.753-.127 8.216 3.627 9.967 1.025.479 2.104.705 3.165.705 2.824 0 5.529-1.604 6.802-4.332l1.758-3.769c1.751-3.753.127-8.216-3.627-9.967z"/><path d="m250.586 261.155c-3.754-1.754-8.216-.13-9.968 3.624l-1.759 3.769c-1.752 3.754-.13 8.217 3.624 9.968 3.743 1.749 8.213.138 9.968-3.624l1.759-3.769c1.752-3.754.129-8.217-3.624-9.968z"/></g></svg>