<svg id="Capa_1" enable-background="new 0 0 512 512" height="512" viewBox="0 0 512 512" width="512" xmlns="http://www.w3.org/2000/svg"><g><path d="m324.34 262.258c-.635-3.722-3.414-6.702-7.082-7.595-3.671-.894-7.506.477-9.777 3.489-10.904 14.453-20.09 24.946-28.382 32.385-2.369-3.256-5.014-6.371-7.949-9.306l-4.703-4.703c-5.76-5.758-15.131-5.758-20.893 0l-4.703 4.703c-2.935 2.935-5.58 6.051-7.949 9.306-8.293-7.439-17.48-17.932-28.381-32.384-2.271-3.014-6.113-4.384-9.777-3.489-3.668.893-6.447 3.873-7.082 7.594-2.29 13.435-2.423 27.259-.455 40.774-5.644-4.139-10.97-8.398-15.637-12.243-2.912-2.399-6.964-2.835-10.32-1.112-3.358 1.723-5.366 5.27-5.116 9.037 1.746 26.196 11.287 51.013 27.243 71.476-15.413.486-23.9 3.458-32.109 6.349-6.259 2.204-12.171 4.285-21.594 5.15-4.985.458-9.599 2.994-12.657 6.958-3.042 3.942-4.317 9.014-3.502 13.912 3.997 23.984 16.393 42.733 36.841 55.726 3.907 2.482 8.195 4.816 12.744 6.938 3.755 1.748 8.217.125 9.967-3.629 1.75-3.755.125-8.217-3.629-9.967-3.963-1.847-7.677-3.866-11.037-6.002-16.935-10.76-26.776-25.652-30.089-45.53-.03-2.166.603-2.951 2.733-3.468 11.277-1.035 18.357-3.528 25.205-5.939 8.142-2.866 15.832-5.574 31.591-5.574 32.005 0 32.781 12 68.164 12 35.504 0 35.964-12 68.161-12 15.758 0 23.448 2.708 31.589 5.574 6.847 2.411 13.926 4.904 25.202 5.939 2.13.516 2.764 1.301 2.733 3.468-3.312 19.877-13.154 34.771-30.089 45.53-22.008 13.983-55.758 21.375-97.601 21.375-22.22 0-42.26-2.094-59.566-6.223-4.028-.959-8.074 1.526-9.035 5.555-.962 4.028 1.525 8.074 5.555 9.035 18.443 4.402 39.655 6.633 63.046 6.633 44.697 0 81.229-8.201 105.646-23.716 20.448-12.993 32.844-31.741 36.841-55.726.815-4.898-.46-9.97-3.502-13.912-3.059-3.964-7.672-6.5-12.657-6.958-9.422-.865-15.333-2.946-21.591-5.15-8.212-2.892-16.703-5.866-32.13-6.35 1.595-2.046 3.135-4.132 4.601-6.265 2.347-3.414 1.481-8.083-1.932-10.43-3.415-2.347-8.084-1.481-10.43 1.932-3.858 5.613-8.24 10.903-13.039 15.76-8.444 1.219-14.4 3.305-20.212 5.352-1.951.687-3.879 1.364-5.896 1.998 8.162-12.75 12.267-27.364 12.285-41.99 15.735-4.333 32.235-15.62 45.266-25.633-1.215 6.585-3.004 13.068-5.354 19.383-1.445 3.882.53 8.2 4.412 9.645.862.321 1.746.474 2.615.474 3.043 0 5.905-1.866 7.029-4.886 4.415-11.856 7.078-24.243 7.917-36.817.25-3.766-1.758-7.312-5.116-9.035-3.357-1.722-7.407-1.287-10.32 1.113-4.667 3.845-9.993 8.103-15.637 12.242 1.967-13.514 1.834-27.339-.456-40.773zm-13.321 15.753c.644 12.314-.707 24.744-3.963 36.644-4.926 2.776-9.836 5.096-14.544 6.663-1.182-6.029-3.076-11.944-5.685-17.609 7.416-6.329 15.317-14.719 24.192-25.698zm-110.037.001c8.873 10.979 16.773 19.367 24.191 25.696-2.609 5.665-4.504 11.58-5.685 17.609-4.707-1.567-9.617-3.887-14.543-6.662-3.255-11.9-4.607-24.33-3.963-36.643zm3.239 93.177c-16.394-16.575-27.311-37.55-31.478-60.284 12.965 9.963 29.471 21.289 45.275 25.641.018 14.625 4.122 29.237 12.283 41.987-2.014-.633-3.939-1.309-5.887-1.995-5.809-2.045-11.76-4.129-20.193-5.349zm48.234 10.869-.997-.998c-24.6-24.599-24.6-64.624 0-89.223l4.542-4.543 4.542 4.543c24.6 24.599 24.6 64.624 0 89.224l-.996.997c-2.611.074-4.573.071-7.091 0z"/><path d="m256 153.615c-25.146 0-45.603 20.457-45.603 45.603 0 4.143 3.357 7.5 7.5 7.5s7.5-3.357 7.5-7.5c0-16.874 13.729-30.603 30.603-30.603s30.603 13.729 30.603 30.603c0 4.143 3.357 7.5 7.5 7.5s7.5-3.357 7.5-7.5c0-25.146-20.457-45.603-45.603-45.603z"/><path d="m380.287 215.04c-34.245-62.388-75.447-98.33-116.787-102.228v-105.312c0-4.143-3.357-7.5-7.5-7.5s-7.5 3.357-7.5 7.5v105.297c-7.562.712-15.162 2.494-22.682 5.324-3.876 1.46-5.836 5.785-4.377 9.662 1.46 3.876 5.786 5.836 9.662 4.377 8.315-3.131 16.691-4.718 24.896-4.718 47.889 0 87.976 52.619 111.138 94.815 28.609 52.122 47.832 117.001 47.832 161.444 0 38.799-15.234 68.151-45.28 87.242-26.826 17.047-66.138 26.057-113.689 26.057-47.55 0-86.863-9.01-113.689-26.056-30.046-19.091-45.28-48.443-45.28-87.242 0-34.62 11.64-82.183 31.135-127.23 21.634-49.989 49.501-89.294 78.467-110.673 3.332-2.46 4.04-7.155 1.58-10.488-2.46-3.332-7.156-4.041-10.488-1.58-31.063 22.928-60.655 64.401-83.324 116.783-20.27 46.833-32.371 96.623-32.371 133.188 0 44.268 17.574 77.88 52.235 99.903 29.654 18.841 70.611 28.395 121.735 28.395s92.082-9.554 121.734-28.395c34.661-22.023 52.235-55.636 52.235-99.903.001-46.743-19.965-114.523-49.682-168.662z"/></g></svg>