<svg id="Capa_1" enable-background="new 0 0 512.002 512.002" height="512" viewBox="0 0 512.002 512.002" width="512" xmlns="http://www.w3.org/2000/svg"><g><path d="m436.488 122.729-9.494-2.525c1.305-13.923 1.468-27.945.46-41.934l-1.168-16.222 7.04-1.014c4.1-.59 6.944-4.393 6.354-8.492-.592-4.101-4.404-6.946-8.493-6.354l-5.982.861-2.887-40.086c-.254-3.528-2.938-6.398-6.44-6.889-3.494-.494-6.872 1.532-8.085 4.854-6.151 16.838-12.745 31.906-19.831 45.299l-.368-.589c-2.195-3.514-6.822-4.581-10.334-2.388-3.514 2.194-4.583 6.821-2.389 10.334l4.641 7.431c-8.097 13.11-16.796 24.285-26.164 33.628l-2.821-24.092 2.97-.852c3.981-1.143 6.283-5.296 5.141-9.277-1.142-3.982-5.293-6.28-9.277-5.142l-.601.173-1.715-14.648c-.417-3.562-3.298-6.331-6.874-6.606-3.569-.274-6.848 2.02-7.804 5.478-3.098 11.195-6.532 21.952-10.293 32.27l-.64-.463c-3.354-2.425-8.045-1.674-10.472 1.683-2.428 3.356-1.674 8.045 1.683 10.473l3.827 2.768c-3.95 9.591-8.208 18.76-12.768 27.501l-.958-.878c-3.053-2.798-7.798-2.593-10.597.46s-2.594 7.797.46 10.597l3.616 3.316c-5.095 8.655-10.522 16.833-16.267 24.533-3.665-10.814-7.975-20.161-13.04-28.273l3.65-3.093c3.16-2.678 3.551-7.411.873-10.571s-7.411-3.55-10.57-.874l-2.859 2.422c-2.331-2.691-4.778-5.224-7.372-7.583-2.959-2.691-5.631-5.569-8.016-8.593l3.681-3.148c3.147-2.692 3.517-7.427.825-10.575-2.693-3.148-7.426-3.516-10.575-.825l-1.896 1.621c-1.7-3.691-3.02-7.514-3.928-11.43-.883-3.806-1.52-7.693-1.974-11.705l5.379-2.424c3.776-1.702 5.458-6.143 3.755-9.919s-6.145-5.457-9.919-3.755l-.08.036c-.052-11.355.84-24.06 2.051-39.145.287-3.575-1.998-6.854-5.451-7.822-3.451-.971-7.109.643-8.723 3.847l-11.744 23.31c-3.76 7.464-7.164 15.067-10.248 22.773l-2.734-1.348c-3.715-1.831-8.212-.305-10.043 3.411-1.832 3.715-.305 8.211 3.411 10.043l4.127 2.035c-2.154 6.311-4.097 12.68-5.809 19.102-2.457-.861-5.293-.422-7.401 1.406-3.128 2.715-3.464 7.452-.749 10.58l4.197 4.836c-.906 4.433-1.722 8.883-2.422 13.348-6.946-5.85-14.234-11.285-21.817-16.272l3.05-6.308c1.803-3.729.242-8.213-3.487-10.017-3.727-1.803-8.213-.241-10.017 3.487l-2.409 4.982c-10.323-5.864-21.095-10.926-32.196-15.132l.562-6.668c.348-4.127-2.716-7.755-6.844-8.103-4.131-.344-7.755 2.718-8.103 6.844l-.248 2.942c-.71-.215-1.415-.449-2.128-.657l-13.176-3.849c-3.297-.964-6.828.437-8.568 3.398-1.741 2.961-1.248 6.727 1.198 9.14 6.591 6.503 12.521 12.857 17.815 19.093l-1.384 2.714c-1.881 3.69-.415 8.207 3.275 10.088 1.091.557 2.254.82 3.401.82 1.565 0 3.088-.506 4.361-1.414 10.058 13.756 16.905 27.013 20.738 40.125l-3.723.761c-4.058.83-6.675 4.792-5.846 8.851.727 3.552 3.851 5.999 7.34 5.999 1.239 0 1.758-.243 5.28-.924.351 2.865.561 5.73.631 8.598.551 17.829 2.065 34.021 4.552 48.639h-.839c-4.142 0-7.5 3.358-7.5 7.5s3.358 7.5 7.5 7.5h3.859c2.244 9.518 4.983 18.251 8.209 26.236l-2.711 2.605c-2.987 2.87-3.081 7.617-.211 10.604 1.473 1.532 3.439 2.303 5.409 2.303 1.47 0 2.94-.437 4.209-1.301 2.848 5.201 5.964 10 9.359 14.394h-26.521c-4.142 0-7.5 3.357-7.5 7.5v36.626c0 4.143 3.358 7.5 7.5 7.5h15.695l4.582 25.292c.739 4.076 4.641 6.783 8.717 6.043 4.076-.738 6.781-4.642 6.043-8.717l-4.098-22.618h177.421l-22.386 123.56h-132.648l-12.912-71.274c-.738-4.076-4.64-6.782-8.717-6.043-4.076.738-6.781 4.641-6.043 8.717l12.428 68.601h-13.177c-3.881 0-7.481 1.753-9.877 4.81-2.396 3.056-3.238 6.97-2.312 10.737.561 2.281 1.28 4.498 2.136 6.589 5.995 14.627 20.331 24.078 36.521 24.078h91.221c4.143 0 7.5-3.357 7.5-7.5s-3.357-7.5-7.5-7.5h-91.221c-9.922 0-19.021-5.935-22.642-14.767-.193-.472-.377-.955-.549-1.447h182.939c-.173.492-.356.975-.55 1.447-3.62 8.832-12.719 14.767-22.642 14.767h-15.349c-4.143 0-7.5 3.357-7.5 7.5s3.357 7.5 7.5 7.5h15.349c16.191 0 30.526-9.451 36.521-24.077.858-2.094 1.578-4.312 2.138-6.592.926-3.768.083-7.681-2.312-10.736-2.396-3.056-5.996-4.809-9.877-4.809h-13.177l22.385-123.56h15.695c4.143 0 7.5-3.357 7.5-7.5v-36.626c0-4.143-3.357-7.5-7.5-7.5h-30.716c7.639-6.432 14.857-13.275 21.632-20.498l2.633 3.258c1.481 1.834 3.65 2.786 5.838 2.786 1.655 0 3.321-.545 4.709-1.667 3.222-2.604 3.723-7.325 1.119-10.547l-4.231-5.235c11.556-13.919 21.585-29.057 29.941-45.223l1.419 1.523c1.477 1.584 3.479 2.386 5.487 2.386 1.831 0 3.667-.667 5.112-2.014 3.029-2.825 3.196-7.57.371-10.6l-5.44-5.835c2.698-6.143 5.168-12.414 7.398-18.809 1.363-3.911-.701-8.188-4.612-9.551-3.912-1.365-8.188.701-9.552 4.612-16.39 47.001-46.36 86.783-86.233 115.415h-2.437c11.145-15.55 20.381-32.221 27.617-49.862h7.682c4.143 0 7.5-3.358 7.5-7.5s-3.357-7.5-7.5-7.5h-2.093c1.097-3.261 2.145-6.544 3.112-9.864 2.447-8.402 4.428-16.875 5.967-25.4l5.087-.785c4.094-.631 6.9-4.462 6.269-8.556-.631-4.095-4.466-6.901-8.556-6.269l-.507.078c.888-7.715 1.403-15.465 1.555-23.238l2.582.768c4.01 1.19 8.157-1.118 9.327-5.052 1.18-3.97-1.082-8.146-5.052-9.326l-7.041-2.093c-.266-5.993-.743-11.995-1.447-18l-.108-.927c23.892-20.572 41.17-48.57 54.154-77.031l2.83 39.301c1.615 22.426.06 44.947-4.624 66.935-.863 4.051 1.721 8.035 5.772 8.898 4.045.863 8.034-1.718 8.897-5.773 1.002-4.704 1.863-9.432 2.595-14.176l7.499 1.994c4.011 1.066 8.113-1.325 9.176-5.32 1.066-4.004-1.316-8.112-5.319-9.177zm-220.366-44.324c3.546 15.291 11.994 29.35 24.43 40.658 12.546 11.408 21.512 27.676 28.071 50.964-3.837 4.418-7.796 8.651-11.88 12.687-1.842 1.82-3.613 3.69-5.316 5.602l-.163-.327c-1.847-3.708-6.35-5.216-10.057-3.37-3.708 1.847-5.216 6.35-3.37 10.057l3.404 6.834c-6.616 9.93-11.606 20.685-14.856 31.903l-.976-.504c-3.681-1.901-8.204-.46-10.106 3.219-1.902 3.68-.461 8.205 3.219 10.106l4.572 2.363c-1.958 13.427-1.516 27.253 1.528 40.903.081.361.177.738.26 1.103h-6.57l-12.615-33.35c-26.192-69.249-23.473-146.514 7.198-213.632-.151 12.621.679 23.796 3.227 34.784zm-77.067 93.304c-.677-27.931-12.53-55.1-36.959-84.115 26.585 9.755 51.207 24.812 72.024 44.07-.426 4.539-.753 9.086-.968 13.639h-4.634c-4.142 0-7.5 3.358-7.5 7.5s3.358 7.5 7.5 7.5h4.309c.043 11.029.714 22.06 2.001 33.041l-5.243 1.675c-3.945 1.26-6.123 5.481-4.862 9.427 1.018 3.187 3.967 5.22 7.143 5.22.756 0 1.525-.115 2.284-.357l2.841-.908c2.158 12.675 5.155 25.242 9.001 37.616l-3.031 3.445c-2.736 3.11-2.433 7.849.678 10.584 1.425 1.254 3.191 1.869 4.951 1.869.905 0 1.806-.173 2.66-.496 2.359 6.317 7.698 20.385 11.022 29.185h-26.232c-22.771-21.618-35.212-61.607-36.985-118.895zm222.121 155.52h-224.299v-21.626h224.299zm-86.918-36.626c-.271-1.727-.52-3.434-.74-5.104-4.486-33.958 9.001-67.614 36.08-90.028 3.19-2.641 3.637-7.369.995-10.56s-7.37-3.636-10.56-.995c-31.082 25.728-46.554 64.437-41.387 103.547.136 1.029.3 2.089.454 3.139h-18.816c-.363-1.478-.705-2.936-1.024-4.367-7.543-33.832 3.384-68.502 28.025-92.853 31.453-31.081 53.701-70.629 68.902-112.341 1.485 26.206 14.665 69.449-3.156 130.64-8.403 28.85-22.075 55.382-40.663 78.92h-18.11z"/></g></svg>